<svg id="svg" version="1.1" xmlns="http://www.w3.org/2000/svg" style="display: block;" viewBox="0 0 1640 624"><path d="M0 0 C541.2 0 1082.4 0 1640 0 C1640 205.92 1640 411.84 1640 624 C1098.8 624 557.6 624 0 624 C0 418.08 0 212.16 0 0 Z " transform="translate(0,0)" style="fill: #34495D;"/><path d="M0 0 C0.88558594 0.39469482 0.88558594 0.39469482 1.7890625 0.79736328 C21.11414114 9.58013436 33.67035911 24.63921308 42 44 C47.26757001 60.85266486 46.50726936 79.96530969 39 96 C38.46052734 97.23169922 38.46052734 97.23169922 37.91015625 98.48828125 C29.683973 116.29782951 14.03861273 128.65568148 -4.0625 135.4375 C-21.66304453 141.48514473 -41.4135622 139.15202222 -58.0625 131.61328125 C-75.8175422 122.61246125 -88.23948382 107.76514592 -94.96484375 89.2109375 C-100.5859459 71.77491497 -99.39945319 52.12626715 -91.3125 35.6875 C-87.93653325 29.1599014 -83.96389503 23.44002374 -79 18 C-78.47148438 17.37996094 -77.94296875 16.75992187 -77.3984375 16.12109375 C-59.47063731 -3.61714931 -24.31640342 -11.17668022 0 0 Z " transform="translate(826,370)" style="fill: #3A4D5B;"/><path d="M0 0 C4 5 4 5 5.625 7.375 C9.20181028 11.32831662 13.57280823 14.06825278 18 17 C18.721875 16.2575 19.44375 15.515 20.1875 14.75 C27.9378882 7.17184265 27.9378882 7.17184265 33.75 6.6875 C39.55863198 6.77153084 42.7134655 9.82533807 46.875 13.625 C49 16 49 16 49 18 C55.23945008 13.82556365 60.66075906 9.94747463 64.87890625 3.6640625 C66 2 66 2 68 0 C67.64826628 7.26916352 66.05895605 12.89096209 62 19 C60.77854033 20.09519063 59.52822739 21.15913188 58.25 22.1875 C55.48455527 24.66809205 55.02958904 25.78630137 54.5078125 29.5546875 C54.44685585 30.88996769 54.40297855 32.22612202 54.375 33.5625 C54.14377242 41.92798363 54.14377242 41.92798363 52.125 44.75 C47.74761584 47.90171659 43.24047591 48.95374036 38 50 C38.99 50.78375 39.98 51.5675 41 52.375 C41.99 53.24125 42.98 54.1075 44 55 C44 55.66 44 56.32 44 57 C64.1156272 48.013045 64.1156272 48.013045 77.61376953 32.15917969 C79.4803785 23.90990722 78.47166315 15.2383772 77 7 C79.64590014 6.97315321 82.29153096 6.95323643 84.9375 6.9375 C86.06961914 6.92493164 86.06961914 6.92493164 87.22460938 6.91210938 C89.14994313 6.90347559 91.07535581 6.94775667 93 7 C95.86228635 9.86228635 94.59513886 19.4329381 94.6796875 23.4440918 C94.72624537 25.17788737 94.7943203 26.91124981 94.88476562 28.64331055 C95.61147434 42.80463985 95.61147434 42.80463985 92.13085938 47.54638672 C89.578125 49.43359375 89.578125 49.43359375 83 53 C77.06 56.96 71.12 60.92 65 65 C82.82 65.33 100.64 65.66 119 66 C119 71.61 119 77.22 119 83 C91.775 83.495 91.775 83.495 64 84 C73.9 87.3 83.8 90.6 94 94 C94 118.75 94 143.5 94 169 C88.39 169 82.78 169 77 169 C77 148.21 77 127.42 77 106 C74.69 105.67 72.38 105.34 70 105 C68.22613826 104.50734017 66.46481028 103.96623954 64.72265625 103.37109375 C63.79775391 103.05849609 62.87285156 102.74589844 61.91992188 102.42382812 C60.50549805 101.9355957 60.50549805 101.9355957 59.0625 101.4375 C58.09248047 101.10814453 57.12246094 100.77878906 56.12304688 100.43945312 C53.74677616 99.6317552 51.37257031 98.81849052 49 98 C48.87167339 100.44425347 48.87167339 100.44425347 49 103 C50.5283417 104.43909183 50.5283417 104.43909183 52.625 105.375 C57.56666542 108.16620711 62.06179416 111.7025631 63.66796875 117.34765625 C65.45244031 131.60243493 60.16403663 144.90308786 52.0546875 156.36328125 C43.43570692 167.42376013 43.43570692 167.42376013 36.4140625 168.3359375 C29.21284587 168.43679488 25.77796047 167.43450952 20.3671875 162.515625 C10.4216546 152.43629569 4.26392922 136.8363787 3.4375 122.875 C3.62394013 116.62520244 5.62318098 112.4409147 10 108 C12.10450604 106.56305233 14.15730499 105.35273248 16.4609375 104.265625 C16.96882812 103.84796875 17.47671875 103.4303125 18 103 C18.12831928 100.44718751 18.12831928 100.44718751 18 98 C17.32420898 98.24234375 16.64841797 98.4846875 15.95214844 98.734375 C12.88704742 99.82942998 9.81860546 100.91480619 6.75 102 C5.68652344 102.3815625 4.62304688 102.763125 3.52734375 103.15625 C2.50253906 103.5171875 1.47773437 103.878125 0.421875 104.25 C-0.99206543 104.75273437 -0.99206543 104.75273437 -2.43457031 105.265625 C-5 106 -5 106 -9 106 C-9 126.79 -9 147.58 -9 169 C-14.61 169 -20.22 169 -26 169 C-26 144.25 -26 119.5 -26 94 C-16.43 90.7 -6.86 87.4 3 84 C-14.82 83.67 -32.64 83.34 -51 83 C-51 67 -51 67 -50 66 C-48.34355634 65.87709282 -46.68201007 65.82216092 -45.02124023 65.79467773 C-43.96021591 65.77473251 -42.89919159 65.75478729 -41.80601501 65.73423767 C-40.07479149 65.70916893 -40.07479149 65.70916893 -38.30859375 65.68359375 C-37.13361832 65.66281265 -35.95864288 65.64203156 -34.74806213 65.62062073 C-30.97793676 65.55499876 -27.20773918 65.4961817 -23.4375 65.4375 C-20.88866427 65.3943268 -18.33983597 65.35071292 -15.79101562 65.30664062 C-9.52742108 65.19930455 -3.26375399 65.0975621 3 65 C1.73555054 64.14450562 1.73555054 64.14450562 0.44555664 63.27172852 C-2.67303397 61.16134706 -5.79064561 59.0495234 -8.90795898 56.93725586 C-10.25892782 56.02214633 -11.6101641 55.1074315 -12.96166992 54.19311523 C-14.90092801 52.88107593 -16.83922915 51.5676339 -18.77734375 50.25390625 C-19.38464828 49.84346573 -19.99195282 49.43302521 -20.61766052 49.01014709 C-24.88612829 46.11387171 -24.88612829 46.11387171 -26 45 C-26.10099488 42.27275721 -26.13970529 39.57137477 -26.1328125 36.84375 C-26.13424759 35.61754944 -26.13424759 35.61754944 -26.13571167 34.36657715 C-26.13639345 32.63484622 -26.13453929 30.90311276 -26.13037109 29.17138672 C-26.12502279 26.51133518 -26.13031612 23.8514525 -26.13671875 21.19140625 C-26.13605797 19.51302046 -26.1347768 17.83463477 -26.1328125 16.15625 C-26.13483673 15.35521851 -26.13686096 14.55418701 -26.13894653 13.72888184 C-26.11495079 8.11495079 -26.11495079 8.11495079 -25 7 C-22.30345146 6.92680379 -19.63308542 6.90757463 -16.9375 6.9375 C-16.17888672 6.94201172 -15.42027344 6.94652344 -14.63867188 6.95117188 C-12.75908129 6.9629932 -10.87953101 6.98092922 -9 7 C-9.18236206 8.16849487 -9.18236206 8.16849487 -9.3684082 9.3605957 C-11.52315656 24.11314645 -11.52315656 24.11314645 -6.7166748 37.68518066 C-2.86737326 41.6329718 1.61377629 44.59661829 6.3125 47.4375 C7.3246608 48.05487534 7.3246608 48.05487534 8.35726929 48.6847229 C10.31842592 49.85116169 12.29618569 50.96869223 14.30078125 52.05859375 C15.21677597 52.55940964 15.21677597 52.55940964 16.15127563 53.07034302 C19.58958109 54.80573201 19.58958109 54.80573201 23.27807617 54.28540039 C23.84631104 53.86121826 24.4145459 53.43703613 25 53 C25.7425 52.46375 26.485 51.9275 27.25 51.375 C28.11625 50.694375 28.11625 50.694375 29 50 C28.33613281 49.85304687 27.67226563 49.70609375 26.98828125 49.5546875 C17.7332435 47.2037728 17.7332435 47.2037728 14.796875 43.19140625 C13.64551645 40.02517024 13.75473554 37.04591527 13.6875 33.6875 C13.46716804 26.65064789 12.00991402 23.76857796 7.0078125 18.97265625 C1.59136657 13.65105081 0.34065262 7.35809659 0 0 Z " transform="translate(786,116)" style="fill: #EEC20F;"/><path d="M0 0 C121.77 0 243.54 0 369 0 C369 6.6 369 13.2 369 20 C247.23 20 125.46 20 0 20 C0 13.4 0 6.8 0 0 Z " transform="translate(943,261)" style="fill: #F1C40F;"/><path d="M0 0 C121.77 0 243.54 0 369 0 C369 6.6 369 13.2 369 20 C247.23 20 125.46 20 0 20 C0 13.4 0 6.8 0 0 Z " transform="translate(328,261)" style="fill: #F1C40F;"/><path d="M0 0 C22.77 0 45.54 0 69 0 C69 1.98 69 3.96 69 6 C48.54 6 28.08 6 7 6 C7 8.31 7 10.62 7 13 C27.46 13 47.92 13 69 13 C69 14.98 69 16.96 69 19 C48.54 19 28.08 19 7 19 C7 21.31 7 23.62 7 26 C27.46 26 47.92 26 69 26 C69 27.98 69 29.96 69 32 C48.54 32 28.08 32 7 32 C7 37.61 7 43.22 7 49 C26.14 49 45.28 49 65 49 C65 50.98 65 52.96 65 55 C45.86 55 26.72 55 7 55 C7 57.31 7 59.62 7 62 C26.14 62 45.28 62 65 62 C65 63.98 65 65.96 65 68 C45.86 68 26.72 68 7 68 C7 70.31 7 72.62 7 75 C26.14 75 45.28 75 65 75 C65 76.98 65 78.96 65 81 C45.86 81 26.72 81 7 81 C7 86.28 7 91.56 7 97 C27.46 97 47.92 97 69 97 C69 99.31 69 101.62 69 104 C48.54 104 28.08 104 7 104 C7 105.98 7 107.96 7 110 C27.46 110 47.92 110 69 110 C69 112.31 69 114.62 69 117 C48.54 117 28.08 117 7 117 C7 119.31 7 121.62 7 124 C27.46 124 47.92 124 69 124 C69 125.98 69 127.96 69 130 C46.23 130 23.46 130 0 130 C0 87.1 0 44.2 0 0 Z " transform="translate(494,372)" style="fill: #EBC011;"/><path d="M0 0 C15.778125 -0.061875 31.55625 -0.12375 47.8125 -0.1875 C55.25840698 -0.22846802 55.25840698 -0.22846802 62.85473633 -0.27026367 C68.96228027 -0.28381348 68.96228027 -0.28381348 71.83036804 -0.28633118 C73.8140719 -0.29090835 75.79776793 -0.30139763 77.78141785 -0.31672668 C103.09190775 -0.50237455 103.09190775 -0.50237455 114.375 6.4375 C115.33148437 7.01371094 116.28796875 7.58992188 117.2734375 8.18359375 C128.06556021 15.37318839 136.32389747 26.05425884 139.3125 38.8125 C141.73751734 53.71236615 139.38453897 67.37587473 131 80 C126.46901231 86.03193599 121.67574613 90.46682585 115 94 C115.51915204 100.55770998 117.85788678 105.99301334 120.4375 112 C122.96522161 117.94194274 125.4072016 123.73325221 127 130 C124.69 130 122.38 130 120 130 C115.16848525 119.87240176 111.11369472 109.43372812 107 99 C105.35 99 103.7 99 102 99 C102.2266333 99.55872803 102.4532666 100.11745605 102.68676758 100.69311523 C103.73151948 103.27343671 104.77202692 105.85545035 105.8125 108.4375 C106.16892578 109.31599609 106.52535156 110.19449219 106.89257812 111.09960938 C113 126.28411697 113 126.28411697 113 130 C110.69 130 108.38 130 106 130 C104.42909098 126.05069826 102.86262833 122.09967146 101.30029297 118.14697266 C100.7679894 116.80208609 100.23446596 115.45768168 99.69970703 114.11376953 C98.93201919 112.18386783 98.1687107 110.25228427 97.40625 108.3203125 C96.94541016 107.15773926 96.48457031 105.99516602 96.00976562 104.79736328 C95 102 95 102 95 100 C93.02 100 91.04 100 89 100 C89.45890625 101.09957031 89.9178125 102.19914062 90.390625 103.33203125 C100 126.44845474 100 126.44845474 100 130 C97.69 130 95.38 130 93 130 C82 103.64325843 82 103.64325843 82 100 C80.02 100 78.04 100 76 100 C76.29132813 100.66902344 76.58265625 101.33804688 76.8828125 102.02734375 C79.57994425 108.3460958 82.02914696 114.70887907 84.3125 121.1875 C84.57885254 121.94216553 84.84520508 122.69683105 85.11962891 123.47436523 C87 128.86299271 87 128.86299271 87 130 C84.69 130 82.38 130 80 130 C77.02184716 123.59853678 74.53321026 117.11564503 72.25 110.4375 C71.93417969 109.52419922 71.61835937 108.61089844 71.29296875 107.66992188 C70.52512484 105.44782814 69.76205444 103.22408585 69 101 C62.73 100.67 56.46 100.34 50 100 C50 98.02 50 96.04 50 94 C50.82446625 93.99453156 50.82446625 93.99453156 51.66558838 93.98895264 C57.44218618 93.94679204 63.21801402 93.87721796 68.99414062 93.79248047 C71.14315041 93.7644415 73.29226006 93.74314303 75.44140625 93.72900391 C92.00076755 93.61358085 107.04511922 92.9278607 120 81.1875 C127.85571459 72.79001199 132.40235236 62.24083329 132.3125 50.75 C132.30404053 49.62174805 132.30404053 49.62174805 132.29541016 48.47070312 C132.04646127 37.0239842 128.18071194 28.86238456 120.625 20.3125 C109.81614291 10.79041161 99.73434653 6.89941183 85.33251953 6.79467773 C84.46943617 6.78464501 83.60635281 6.77461229 82.7171154 6.76427555 C79.93904122 6.73303543 77.16095269 6.70817947 74.3828125 6.68359375 C72.66137238 6.66517693 70.9399367 6.64633954 69.21850586 6.6270752 C62.85405651 6.55879075 56.48952206 6.4986336 50.125 6.4375 C28.778125 6.2209375 28.778125 6.2209375 7 6 C7 46.92 7 87.84 7 130 C4.69 130 2.38 130 0 130 C0 87.1 0 44.2 0 0 Z " transform="translate(893,372)" style="fill: #E9BF11;"/><path d="M0 0 C0.88558594 0.39469482 0.88558594 0.39469482 1.7890625 0.79736328 C21.11414114 9.58013436 33.67035911 24.63921308 42 44 C47.26757001 60.85266486 46.50726936 79.96530969 39 96 C38.46052734 97.23169922 38.46052734 97.23169922 37.91015625 98.48828125 C29.683973 116.29782951 14.03861273 128.65568148 -4.0625 135.4375 C-21.66304453 141.48514473 -41.4135622 139.15202222 -58.0625 131.61328125 C-75.8175422 122.61246125 -88.23948382 107.76514592 -94.96484375 89.2109375 C-100.5859459 71.77491497 -99.39945319 52.12626715 -91.3125 35.6875 C-87.93653325 29.1599014 -83.96389503 23.44002374 -79 18 C-78.47148438 17.37996094 -77.94296875 16.75992187 -77.3984375 16.12109375 C-59.47063731 -3.61714931 -24.31640342 -11.17668022 0 0 Z M-77.1875 25.5625 C-90.40064349 42.77962637 -92.84588187 60.63774477 -90.60546875 81.7109375 C-87.10053617 98.21803933 -76.10069327 112.75993188 -62.1875 121.9375 C-45.72731458 132.24875248 -27.44465431 134.32340334 -8.671875 130.10546875 C8.57897332 124.91186229 22.77856147 113.44204753 31.375 97.625 C38.96098718 82.7922588 41.45032434 63.49614409 36.4375 47.3125 C35.68049523 45.51724216 34.86616209 43.7452135 34 42 C33.525625 40.95199219 33.05125 39.90398437 32.5625 38.82421875 C24.05481014 21.42026665 10.11973359 10.46690606 -8 4 C-33.44392771 -3.6735655 -60.18867711 5.64959318 -77.1875 25.5625 Z " transform="translate(826,370)" style="fill: #EABF11;"/><path d="M0 0 C13.52239725 9.85969082 23.36184034 24.61159273 27 41 C28.61901256 61.82506051 25.9066395 80.47083682 12.22070312 96.86523438 C-0.03068583 110.61026146 -16.48520089 118.00418218 -34.7578125 119.2578125 C-53.02871233 119.97449294 -69.53722484 113.32186201 -83 101 C-94.66505499 90.06670123 -101.58080795 75.22940196 -102.30859375 59.33984375 C-102.61308657 48.70997446 -102.82259962 38.71696411 -98 29 C-97.525625 27.95199219 -97.05125 26.90398437 -96.5625 25.82421875 C-88.04565329 8.40153473 -74.05742855 -2.4758955 -56 -9 C-37.26890573 -14.8927399 -16.23309281 -10.46834468 0 0 Z M-82 15 C-93.06566677 29.58558634 -97.55299717 44.63245321 -96 63 C-92.56018721 79.62266291 -83.98570456 93.62331569 -69.80981445 103.06298828 C-55.34211836 112.28956474 -39.14789302 114.33088974 -22.3203125 111.34765625 C-6.04912205 106.31955628 6.73396662 95.71607526 15 81 C21.55740744 66.82603142 23.4013025 51.19916462 19 36 C12.2034396 19.1121477 1.38871343 7.32570555 -14.9453125 -0.7734375 C-22.63525293 -3.86121409 -29.59953516 -4.36470161 -37.8125 -4.375 C-39.33713867 -4.41173828 -39.33713867 -4.41173828 -40.89257812 -4.44921875 C-56.54984537 -4.50909358 -71.61006437 3.45562708 -82 15 Z " transform="translate(837,383)" style="fill: #3B4D5A;"/><path d="M0 0 C14.128125 -0.061875 28.25625 -0.12375 42.8125 -0.1875 C47.25436768 -0.21481201 51.69623535 -0.24212402 56.27270508 -0.27026367 C61.7454834 -0.28381348 61.7454834 -0.28381348 64.31694031 -0.28633118 C66.09231327 -0.29090295 67.86767759 -0.30138072 69.64299011 -0.31672668 C86.13387269 -0.45200569 97.20047924 1.56314998 111 11 C111.63035156 11.4228125 112.26070312 11.845625 112.91015625 12.28125 C120.63143869 18.04647422 126.98560726 28.96237473 129.6171875 38.15625 C130.20165475 42.49800674 130.22532682 46.81109477 130.25 51.1875 C130.2809375 52.53038086 130.2809375 52.53038086 130.3125 53.90039062 C130.38911772 67.16483336 125.21538861 77.64755334 116.25 87.3125 C106.48649899 96.54619863 93.52559116 101.18189099 80.296875 101.09765625 C79.45908508 101.0962413 78.62129517 101.09482635 77.75811768 101.09336853 C75.08870843 101.08778197 72.4193838 101.07523194 69.75 101.0625 C67.93750121 101.05748326 66.12500111 101.05292066 64.3125 101.04882812 C59.87496752 101.03781694 55.43749809 101.02056155 51 101 C51 99.02 51 97.04 51 95 C52.49611816 94.98598145 52.49611816 94.98598145 54.02246094 94.97167969 C57.78021299 94.93132047 61.53718511 94.86544405 65.29443359 94.79248047 C66.90989032 94.76453361 68.52547712 94.74319062 70.14111328 94.72900391 C84.96741787 94.59112755 99.00692407 92.52630728 110.2578125 81.859375 C117.52985057 73.97015289 122.23029638 65.84582367 123 55 C123.07734375 54.01515625 123.1546875 53.0303125 123.234375 52.015625 C123.76357062 39.72652678 119.1493813 29.16805396 111 20 C101.23459857 11.31964317 89.3019083 6.90081616 76.36401367 6.79467773 C75.6001727 6.78464501 74.83633173 6.77461229 74.04934406 6.76427555 C71.58891597 6.7330171 69.12847168 6.70817188 66.66796875 6.68359375 C65.14407847 6.66517862 63.62019323 6.64634132 62.09631348 6.6270752 C56.46010196 6.55877034 50.82379394 6.49862621 45.1875 6.4375 C26.2846875 6.2209375 26.2846875 6.2209375 7 6 C7 46.92 7 87.84 7 130 C4.69 130 2.38 130 0 130 C0 87.1 0 44.2 0 0 Z " transform="translate(1056,372)" style="fill: #E9BF11;"/><path d="M0 0 C1.02931641 -0.01611328 2.05863281 -0.03222656 3.11914062 -0.04882812 C18.27044266 -0.05841149 31.85985431 6.21714121 42.83203125 16.65234375 C54.91544027 30.2987808 59.78210186 45.43195855 59.50390625 63.5703125 C58.27804254 78.0687993 50.82102906 93.18037973 39.65234375 102.60839844 C33.41206091 107.45401566 26.69291479 111.7350177 19.1875 114.3125 C17.65609375 114.84423828 17.65609375 114.84423828 16.09375 115.38671875 C1.02968965 119.57341108 -15.76516216 116.3686559 -29.125 109 C-43.42816233 100.1169834 -53.22133779 86.81700482 -57.3125 70.359375 C-60.13424706 53.16435383 -56.46093724 37.77723822 -46.92578125 23.484375 C-35.25927585 8.05524412 -19.1848921 -0.05939595 0 0 Z M-37.8125 22.3125 C-49.26058388 36.2992803 -52.01463967 49.77143547 -51.125 67.40576172 C-49.80659934 79.66894786 -42.1464115 91.0674893 -32.8359375 98.77734375 C-21.37805688 107.45272013 -8.17975693 111.51838487 6.1875 110.3125 C16.531079 108.58510149 24.71911884 105.72971618 33.1875 99.3125 C34.79625 98.1678125 34.79625 98.1678125 36.4375 97 C46.425157 87.2393352 52.35633649 74.96799761 52.51708984 61.00561523 C52.5114502 60.15813721 52.50581055 59.31065918 52.5 58.4375 C52.49436035 57.55199463 52.4887207 56.66648926 52.48291016 55.75415039 C52.23651064 42.52054448 47.24357149 30.91572222 38.1640625 21.15625 C26.51898248 10.29364571 13.24831308 5.75215847 -2.51953125 6.06640625 C-15.69531578 7.05107342 -28.80031829 12.48102905 -37.8125 22.3125 Z " transform="translate(798.8125,378.6875)" style="fill: #E9BF11;"/><path d="M0 0 C13.468125 -0.0825 26.93625 -0.165 40.8125 -0.25 C45.04553955 -0.28641602 49.2785791 -0.32283203 53.63989258 -0.36035156 C58.85876465 -0.37841797 58.85876465 -0.37841797 61.31156921 -0.3817749 C63.00362878 -0.3878673 64.69567233 -0.40183074 66.38761902 -0.42230225 C80.87826572 -0.58867575 91.93129838 0.70804937 103 11 C110.60555032 18.80525843 113.96705431 26.32520564 114.4375 37.25 C114.25450829 47.1201151 110.5560295 55.23949408 103.75 62.32421875 C102.88375 63.15373047 102.88375 63.15373047 102 64 C101.505 64.48082031 101.01 64.96164062 100.5 65.45703125 C94.88546907 70.50705771 87.85138629 74.13346821 80.25317383 74.11352539 C79.29240433 74.11344986 78.33163483 74.11337433 77.3417511 74.11329651 C76.30729355 74.10813522 75.272836 74.10297394 74.20703125 74.09765625 C73.14586594 74.0962413 72.08470062 74.09482635 70.99137878 74.09336853 C67.59839065 74.08776606 64.20546823 74.07521314 60.8125 74.0625 C58.51367283 74.05748532 56.21484462 74.05292236 53.91601562 74.04882812 C48.27732128 74.03779583 42.63866534 74.0210553 37 74 C37 72.02 37 70.04 37 68 C38.83776001 67.970271 38.83776001 67.970271 40.71264648 67.93994141 C45.2919444 67.86342237 49.87094359 67.77477902 54.44995117 67.68261719 C56.42547677 67.64451765 58.40106726 67.60963287 60.37670898 67.578125 C63.22923858 67.53205841 66.08132875 67.47413583 68.93359375 67.4140625 C69.80584091 67.40251129 70.67808807 67.39096008 71.57676697 67.37905884 C81.53883617 67.14346593 90.0691198 65.34201116 98 59 C104.89573704 51.05212989 106.54377011 43.12620682 106.37109375 32.765625 C105.63974982 25.34440873 102.60996423 20.20624609 97.25 15.125 C89.86518047 9.19476614 82.18300401 6.90738108 72.84472656 6.79467773 C72.12065487 6.78464501 71.39658318 6.77461229 70.65056992 6.76427555 C68.31395382 6.73297086 65.97732071 6.70815266 63.640625 6.68359375 C62.19514422 6.66518289 60.7496688 6.64634581 59.30419922 6.6270752 C53.95286296 6.55871871 48.60142394 6.49860757 43.25 6.4375 C25.30625 6.2209375 25.30625 6.2209375 7 6 C7 42.63 7 79.26 7 117 C4.69 117 2.38 117 0 117 C0 78.39 0 39.78 0 0 Z " transform="translate(906,385)" style="fill: #E9BF11;"/><path d="M0 0 C0.88558594 0.39469482 0.88558594 0.39469482 1.7890625 0.79736328 C11.73210092 5.31622874 24.70675344 12.37855764 29 23 C27.35 23.99 25.7 24.98 24 26 C23.50113281 25.443125 23.00226563 24.88625 22.48828125 24.3125 C9.2886182 10.28341467 -6.45388682 3.41244599 -25.45092773 2.61254883 C-43.60849006 2.2172743 -59.55388225 9.10472348 -72.75390625 21.62890625 C-86.53725518 36.17932851 -90.55641936 52.75616489 -90.23828125 72.1640625 C-89.73018324 88.00770981 -82.85561802 102.16097048 -71.8203125 113.5 C-56.3887667 127.17893257 -38.77754196 131.93266126 -18.4453125 131.17919922 C-12.92597269 130.77472683 -8.05683609 129.15669036 -3 127 C-1.97519531 126.56429687 -0.95039062 126.12859375 0.10546875 125.6796875 C7.23960412 122.37031672 13.068262 118.12190852 19 113 C20.20690119 111.99827201 21.41499244 110.99797352 22.625 110 C23.800625 109.01 23.800625 109.01 25 108 C26.32 108.99 27.64 109.98 29 111 C23.53616107 123.16578915 9.43508658 129.57070638 -1.9765625 134.9921875 C-20.44712315 141.14904105 -40.55797052 139.52279957 -58.0703125 131.61328125 C-75.81806231 122.59109646 -88.23661667 107.77305593 -94.96484375 89.2109375 C-100.5859459 71.77491497 -99.39945319 52.12626715 -91.3125 35.6875 C-87.93653325 29.1599014 -83.96389503 23.44002374 -79 18 C-78.47148438 17.37996094 -77.94296875 16.75992187 -77.3984375 16.12109375 C-59.47063731 -3.61714931 -24.31640342 -11.17668022 0 0 Z " transform="translate(682,370)" style="fill: #EBC011;"/><path d="M0 0 C5.91630633 4.59023767 9.59507967 9.85208461 10.60546875 17.34375 C10.9478447 26.52312674 9.7080092 33.66482643 3.48046875 40.6171875 C-2.31020288 45.97649984 -8.37858405 48.34988827 -16.2578125 48.0625 C-24.12715815 47.21683897 -30.69815051 44.95667959 -35.875 38.78125 C-41.48817877 31.1735407 -42.25404683 22.99804498 -40.875 13.78125 C-38.27800288 6.59465071 -33.49951836 1.48890607 -26.875 -2.21875 C-17.86678157 -5.88876491 -8.15972043 -5.30381828 0 0 Z " transform="translate(814.875,415.21875)" style="fill: #354A5D;"/><path d="M0 0 C11.818125 -0.0825 23.63625 -0.165 35.8125 -0.25 C39.52346924 -0.28641602 43.23443848 -0.32283203 47.05786133 -0.36035156 C51.64196777 -0.37841797 51.64196777 -0.37841797 53.79814148 -0.3817749 C55.28187378 -0.38785728 56.76558818 -0.40179911 58.24919128 -0.42230225 C73.36004427 -0.62041986 83.91514451 2.18499171 94.97265625 12.9140625 C102.73734382 21.1898017 104.66437641 28.67231017 104.61352539 39.83032227 C104.32068327 47.26675957 102.26655548 52.86008337 98 59 C97.29810547 60.02480469 97.29810547 60.02480469 96.58203125 61.0703125 C91.0556936 68.22204358 82.85250793 73.27741982 74 75 C67.82811962 75.48014158 61.62115408 75.28341269 55.4375 75.1875 C53.7441525 75.17242858 52.05079206 75.15874451 50.35742188 75.14648438 C46.23795778 75.11366704 42.1191237 75.06202063 38 75 C38 73.02 38 71.04 38 69 C38.97759277 68.9906543 39.95518555 68.98130859 40.96240234 68.97167969 C44.63439354 68.9314165 48.30557843 68.86556334 51.97705078 68.79248047 C53.55767355 68.76447921 55.13843091 68.74316236 56.71923828 68.72900391 C69.46310389 68.60809437 80.39677346 67.32518212 90 58 C95.63340294 50.83282069 97.60304808 43.51688246 97.4375 34.453125 C96.34433333 25.82491666 91.86996466 18.71976197 85.08203125 13.3984375 C78.08840314 8.70102875 72.10019282 6.91322916 63.64916992 6.79467773 C61.7314679 6.76440491 61.7314679 6.76440491 59.77502441 6.73352051 C58.42684071 6.71675571 57.07865549 6.70011242 55.73046875 6.68359375 C54.49703735 6.66494263 53.26360596 6.6462915 51.99279785 6.6270752 C47.39110386 6.5588444 42.78929349 6.49865302 38.1875 6.4375 C27.895625 6.293125 17.60375 6.14875 7 6 C7 42.63 7 79.26 7 117 C4.69 117 2.38 117 0 117 C0 78.39 0 39.78 0 0 Z " transform="translate(1069,385)" style="fill: #E9BF11;"/><path d="M0 0 C9.18793091 7.50613238 17.07740379 19.50974742 18.71484375 31.40625 C19.70560087 48.43266773 17.82781132 62.10812513 7.15234375 76.03125 C-2.58841479 86.58585782 -15.55799687 92.25615881 -29.71484375 93.64453125 C-42.9470552 94.04614789 -54.79000601 90.42264616 -65.28515625 82.40625 C-66.12820313 81.77460938 -66.97125 81.14296875 -67.83984375 80.4921875 C-76.26366745 73.30636984 -83.30958705 61.79280204 -84.59863281 50.71142578 C-85.30787683 40.03177906 -85.61208262 28.99142924 -80.28515625 19.40625 C-79.82625 18.54128906 -79.36734375 17.67632812 -78.89453125 16.78515625 C-71.64432203 3.94465413 -61.27915497 -5.07202219 -46.95703125 -9.27734375 C-30.35589404 -13.15986777 -13.94274783 -9.72417284 0 0 Z M-70.28515625 14.40625 C-78.03255485 25.60431007 -80.01728898 38.68277375 -77.85546875 52.06640625 C-75.16772896 62.53531863 -67.9997188 73.74569984 -58.62744141 79.40771484 C-45.9712745 86.42234365 -32.90521844 89.00525256 -18.58203125 85.5 C-5.51550998 80.27339149 4.97800486 70.29671795 10.71484375 57.40625 C14.50566865 46.5753217 13.87079249 33.25198271 9.59765625 22.62890625 C3.51767848 10.38307532 -5.98687784 2.85548718 -18.28515625 -2.59375 C-22.81483929 -3.9443409 -27.28099835 -3.8162531 -31.97265625 -3.84375 C-32.83310547 -3.864375 -33.69355469 -3.885 -34.58007812 -3.90625 C-49.07664444 -3.99364452 -61.18956737 3.36284859 -70.28515625 14.40625 Z " transform="translate(832.28515625,395.59375)" style="fill: #3B4D5A;"/><path d="M0 0 C0.88300781 0.45761719 1.76601563 0.91523438 2.67578125 1.38671875 C9.02016759 4.90068083 17.62274373 9.86823119 20 17 C18.1875 18.5625 18.1875 18.5625 16 20 C12.25913583 18.75304528 10.74204747 16.80733432 8 14 C-2.45355668 4.70794962 -14.95970292 1.31915008 -28.8125 1.71875 C-41.19690036 2.81149121 -54.48147184 7.59806892 -63 17 C-74.26034806 30.84949534 -76.98453863 43.6721201 -76 61 C-74.41642877 73.13176606 -68.55219181 84.56475901 -59.08984375 92.4140625 C-45.396965 102.01774202 -31.2872421 105.76770154 -14.5625 103.375 C-4.06039714 101.23263094 7.93840207 95.0923969 14 86 C15.65 86.66 17.3 87.32 19 88 C19 91.51959569 18.01501602 92.73964379 15.73828125 95.32421875 C3.33368698 107.28280513 -10.89642761 111.42870177 -27.63427734 111.36352539 C-42.74726455 111.08039282 -56.08301506 105.26594243 -67.1953125 94.9375 C-79.83239526 81.37041548 -84.80043165 65.65219427 -84.28125 47.4609375 C-84.02160747 42.24861363 -83.13876551 37.77604028 -81 33 C-80.57460938 32.02804687 -80.14921875 31.05609375 -79.7109375 30.0546875 C-71.84132893 13.26338365 -59.3483818 2.24059285 -41.8984375 -4.1328125 C-28.34140714 -7.14850462 -12.26309555 -6.86515984 0 0 Z " transform="translate(681,384)" style="fill: #E9BE12;"/><path d="M0 0 C16.768125 -0.1546875 16.768125 -0.1546875 33.875 -0.3125 C37.38624512 -0.35802002 40.89749023 -0.40354004 44.51513672 -0.45043945 C48.84985352 -0.47302246 48.84985352 -0.47302246 50.88821411 -0.47721863 C52.29202228 -0.48482578 53.69580069 -0.5022626 55.09939575 -0.52787781 C63.96793214 -0.68143564 71.57881676 -0.40473406 79 5 C84.96990006 10.79563673 87.93644321 15.9944822 88.25 24.375 C88.160044 31.1554337 85.19944222 36.77907184 81 42 C76.07940887 45.69542371 71.68644375 48.13064779 65.43676758 48.11352539 C64.51603958 48.11344986 63.59531158 48.11337433 62.64668274 48.11329651 C61.65597275 48.10813522 60.66526276 48.10297394 59.64453125 48.09765625 C58.62775803 48.0962413 57.6109848 48.09482635 56.56340027 48.09336853 C53.31307036 48.08776707 50.06280912 48.07521432 46.8125 48.0625 C44.61002704 48.05748519 42.40755299 48.05292225 40.20507812 48.04882812 C34.80336196 48.03779717 29.40168588 48.02105762 24 48 C24 46.02 24 44.04 24 42 C25.29099609 41.99589111 26.58199219 41.99178223 27.91210938 41.98754883 C32.72826383 41.96568248 37.54361003 41.91131477 42.359375 41.84741211 C44.43872294 41.82429747 46.51818687 41.80985182 48.59765625 41.80444336 C51.59708394 41.79510606 54.59470362 41.75401064 57.59375 41.70703125 C58.51490601 41.7109639 59.43606201 41.71489655 60.38513184 41.71894836 C68.1778846 41.54506189 73.08656584 38.98627001 78.5 33.4375 C80.75144273 28.27794375 80.71626479 23.53962236 80 18 C77.80454374 12.51135934 74.09931402 10.54552869 68.99273682 8.06973267 C63.47314778 6.0967945 57.92242794 6.27403488 52.1171875 6.29296875 C50.96742432 6.27834595 49.81766113 6.26372314 48.63305664 6.24865723 C44.38058196 6.20165693 40.12772377 6.19701367 35.875 6.1875 C26.34625 6.125625 16.8175 6.06375 7 6 C7 38.34 7 70.68 7 104 C4.69 104 2.38 104 0 104 C0 69.68 0 35.36 0 0 Z " transform="translate(919,398)" style="fill: #E9BF11;"/><path d="M0 0 C0.76183594 0.43570312 1.52367187 0.87140625 2.30859375 1.3203125 C13.41621078 8.17594122 20.94415411 17.65014102 24.65625 30.22265625 C24.9375 32.0625 24.9375 32.0625 25 36 C25.07154297 37.49466797 25.07154297 37.49466797 25.14453125 39.01953125 C25.5909263 53.22150722 20.93922833 63.68799297 11.4375 74.25 C1.16439654 84.05798264 -11.31092858 86.47594842 -24.95703125 86.27734375 C-36.87042216 85.83561869 -47.18254761 79.64783456 -55.30078125 71.11328125 C-65.03067814 59.01242098 -67.02457868 48.24536778 -65.7578125 33.10546875 C-64.05509325 20.96056305 -57.44275167 11.59806111 -48 4 C-34.40525975 -4.67850279 -14.73884372 -8.87085547 0 0 Z M-50.3125 15.375 C-58.72646581 25.33096751 -59.74114396 35.28654199 -59.17919922 47.97363281 C-58.2574593 58.39657744 -50.85640647 66.98420147 -43.15234375 73.4609375 C-33.91600839 80.06550398 -24.0214258 80.78408941 -13 80 C-1.94059644 77.59876473 6.36997343 70.98587357 13 62 C18.93947237 52.10087938 19.158699 41.22782594 17.57421875 29.9765625 C14.92883797 19.68716731 6.78689066 11.27756135 -2.0390625 5.71484375 C-18.40580024 -3.1004455 -38.16950411 2.38065016 -50.3125 15.375 Z " transform="translate(820,396)" style="fill: #EABF11;"/><path d="M0 0 C9.52875 -0.103125 19.0575 -0.20625 28.875 -0.3125 C31.8641748 -0.35802002 34.85334961 -0.40354004 37.93310547 -0.45043945 C40.3277881 -0.46505563 42.72248323 -0.47779362 45.1171875 -0.48828125 C46.33994385 -0.51386108 47.5627002 -0.53944092 48.82250977 -0.5657959 C57.81407352 -0.57033618 64.53668336 1.1589727 71.4375 7.09765625 C72.2109375 8.07025391 72.2109375 8.07025391 73 9.0625 C73.53625 9.71347656 74.0725 10.36445313 74.625 11.03515625 C79.03183515 17.33242352 78.65366807 23.47868005 78 31 C76.39554995 37.65798734 72.80478027 42.39250944 67 46 C61.64562758 48.69106418 57.60954487 49.4192544 51.66015625 49.29296875 C50.89319931 49.28872391 50.12624237 49.28447906 49.33604431 49.28010559 C46.91115668 49.2634507 44.48713202 49.22582553 42.0625 49.1875 C40.40821522 49.17243601 38.75391727 49.15875062 37.09960938 49.14648438 C33.06607897 49.11359077 29.03318527 49.06190249 25 49 C25 47.02 25 45.04 25 43 C25.91700684 42.99589111 26.83401367 42.99178223 27.77880859 42.98754883 C31.2274794 42.96035111 34.67443914 42.91104305 38.12255859 42.84741211 C39.60617348 42.82441656 41.08994734 42.80988027 42.57373047 42.80444336 C51.48254126 42.76539598 59.5344409 42.52663107 67 37 C70.33804939 33.38141071 71.25567491 29.94176721 71.5625 25.0625 C71.28866647 19.60242543 69.7380875 15.96860128 66 12 C59.04280533 7.22374362 52.57710765 6.2602021 44.3046875 6.29296875 C42.87491577 6.27103455 42.87491577 6.27103455 41.41625977 6.24865723 C37.90276005 6.20178258 34.38879948 6.19702405 30.875 6.1875 C22.99625 6.125625 15.1175 6.06375 7 6 C7 38.34 7 70.68 7 104 C4.69 104 2.38 104 0 104 C0 69.68 0 35.36 0 0 Z " transform="translate(1082,398)" style="fill: #E9BF11;"/><path d="M0 0 C0.78503906 0.44730469 1.57007813 0.89460938 2.37890625 1.35546875 C7.59656474 4.561707 11.2428558 8.18314846 15 13 C13.68 13.99 12.36 14.98 11 16 C8.14447237 14.7020329 6.11891706 13.30126127 3.875 11.125 C-3.63439386 4.50572826 -13.28705401 2.65809212 -23.03125 2.7890625 C-33.90146174 3.56141965 -42.44944474 7.91789781 -49.8125 15.875 C-58.18158109 26.03052068 -59.12898881 37.23350534 -58 50 C-55.79881576 59.83614902 -49.49154643 67.59992761 -41.4765625 73.45703125 C-31.41091757 79.72821382 -21.29838777 80.2777587 -9.875 77.9375 C-2.39036314 75.88192956 3.67375895 71.58149222 9 66 C10.65 66.66 12.3 67.32 14 68 C14 71 14 71 12.19921875 73.0859375 C-0.14712382 84.33781424 -11.42122557 86.77922476 -27.60400391 86.17919922 C-38.261795 85.38209114 -48.08378342 78.70038154 -55.30078125 71.11328125 C-65.03067814 59.01242098 -67.02457868 48.24536778 -65.7578125 33.10546875 C-64.05509325 20.96056305 -57.44275167 11.59806111 -48 4 C-34.40200289 -4.68058188 -14.74252091 -8.86747534 0 0 Z " transform="translate(676,396)" style="fill: #EABF11;"/><path d="M0 0 C12.931875 -0.0928125 12.931875 -0.0928125 26.125 -0.1875 C28.83734863 -0.21481201 31.54969727 -0.24212402 34.34423828 -0.27026367 C36.50292516 -0.27902855 38.66161701 -0.28667248 40.8203125 -0.29296875 C41.93398193 -0.30831665 43.04765137 -0.32366455 44.19506836 -0.33947754 C50.87656309 -0.34173023 55.77179686 -0.0129896 60.875 4.75 C62.50918244 8.01836488 62.37371743 10.38739819 62 14 C60.42275698 17.98066095 59.58999089 19.60667274 56 22 C53.93086243 22.24050903 53.93086243 22.24050903 51.52856445 22.22705078 C50.17750359 22.22682419 50.17750359 22.22682419 48.79914856 22.22659302 C47.83031235 22.21627045 46.86147614 22.20594788 45.86328125 22.1953125 C44.37141548 22.19106766 44.37141548 22.19106766 42.84941101 22.18673706 C39.6703187 22.17553489 36.49150728 22.15043014 33.3125 22.125 C31.15820719 22.11497025 29.00390997 22.10584439 26.84960938 22.09765625 C21.56631028 22.07559546 16.28317521 22.04211756 11 22 C11 20.02 11 18.04 11 16 C12.23153809 15.97494385 13.46307617 15.9498877 14.73193359 15.92407227 C19.29047493 15.83007388 23.84886118 15.72983485 28.40722656 15.62768555 C30.38212462 15.58430797 32.35706087 15.542635 34.33203125 15.50268555 C37.1667839 15.44505127 40.00134378 15.3813373 42.8359375 15.31640625 C43.72243988 15.29969376 44.60894226 15.28298126 45.52230835 15.26576233 C49.89925155 15.28914789 49.89925155 15.28914789 54 14 C54 12.02 54 10.04 54 8 C51.67148048 6.83574024 50.23719816 6.84542008 47.64208984 6.79467773 C46.7287085 6.77449585 45.81532715 6.75431396 44.87426758 6.73352051 C43.91286865 6.71704468 42.95146973 6.70056885 41.9609375 6.68359375 C40.63703003 6.65561707 40.63703003 6.65561707 39.28637695 6.6270752 C35.98268852 6.55866735 32.67883187 6.49858903 29.375 6.4375 C18.299375 6.2209375 18.299375 6.2209375 7 6 C7 34.05 7 62.1 7 91 C4.69 91 2.38 91 0 91 C0 60.97 0 30.94 0 0 Z " transform="translate(932,411)" style="fill: #E9BF11;"/><path d="M0 0 C7.86302486 5.11701464 14.55183623 12.4278316 16.5625 21.75 C17.55469846 33.85482116 16.29879921 41.97903324 8.6484375 51.70703125 C3.46729898 57.12782596 -3.25653226 61.20515497 -10.76171875 61.8984375 C-22.17390087 62.15538008 -30.7779434 60.59535441 -39.37109375 52.48828125 C-45.89501992 45.32503937 -48.53965089 38.00983365 -48.3046875 28.36328125 C-47.66355081 18.36991156 -44.1496804 10.89668791 -36.5625 4.1875 C-26.6541668 -3.69115261 -11.59916714 -5.90562378 0 0 Z M-37.66796875 14.42578125 C-42.24855358 21.23892003 -42.15005982 28.62464004 -41.125 36.5625 C-38.93689726 44.44595151 -34.1326 49.51602391 -27.125 53.5625 C-24.4521042 54.72214156 -22.01631593 55.25985759 -19.125 55.5625 C-17.95130859 55.70171875 -17.95130859 55.70171875 -16.75390625 55.84375 C-9.89650828 56.27166875 -4.76744715 54.43132819 0.875 50.5625 C6.32403645 45.73293296 9.44594862 40.36328845 10.26171875 33.13671875 C10.65648774 24.40793779 9.74613015 18.21727676 3.875 11.5625 C-1.71788312 6.24704164 -7.17697347 3.5489417 -14.9375 3.25 C-24.68810198 3.49888924 -31.49166464 6.96730768 -37.66796875 14.42578125 Z " transform="translate(815.125,407.4375)" style="fill: #EABF11;"/><path d="M0 0 C44 0 44 0 50 4 C52.81454595 8.22181892 52.80684081 12.04030209 52 17 C49.5625 20.0625 49.5625 20.0625 47 22 C46.505 22.495 46.505 22.495 46 23 C43.47905924 23.08847743 40.98569107 23.11527301 38.46484375 23.09765625 C37.33496788 23.09553383 37.33496788 23.09553383 36.18226624 23.09336853 C33.7673044 23.08775376 31.35243399 23.07519883 28.9375 23.0625 C27.30403779 23.0574869 25.67057414 23.05292366 24.03710938 23.04882812 C20.02470415 23.03777954 16.01236759 23.02050506 12 23 C12 21.02 12 19.04 12 17 C13.3929126 16.970271 13.3929126 16.970271 14.81396484 16.93994141 C18.2545052 16.86191387 21.69459891 16.77522538 25.13476562 16.68261719 C26.62458889 16.64430002 28.11450554 16.60945192 29.60449219 16.578125 C31.74448048 16.53253271 33.88382436 16.47453126 36.0234375 16.4140625 C37.31169434 16.3826416 38.59995117 16.3512207 39.92724609 16.31884766 C43.10481505 16.31541732 43.10481505 16.31541732 45 14 C45.41666667 11.5 45.41666667 11.5 45 9 C34.4279032 1.95193547 19.70089605 6.36288274 7 6 C7 34.05 7 62.1 7 91 C4.69 91 2.38 91 0 91 C0 60.97 0 30.94 0 0 Z " transform="translate(1095,411)" style="fill: #E9BE11;"/><path d="M0 0 C3.16542363 2.28157158 5.24631496 4.49447244 7.40625 7.734375 C6.08625 8.724375 4.76625 9.714375 3.40625 10.734375 C-0.1255136 9.03944381 -3.32626559 7.0061372 -6.59375 4.85546875 C-12.1173889 1.75921023 -18.96980798 1.99798998 -25.03515625 3.23046875 C-31.81049037 5.25962973 -36.49515979 8.70448675 -40.46875 14.609375 C-44.12103992 21.71236741 -43.90517534 30.15040202 -41.7421875 37.7109375 C-38.80446844 44.32580151 -34.31723802 48.87743124 -27.546875 51.5390625 C-19.76084184 53.74208739 -12.85940142 53.05802405 -5.59375 49.734375 C-4.31851128 48.83150599 -3.06644641 47.89471606 -1.84375 46.921875 C-0.77125 46.2 0.30125 45.478125 1.40625 44.734375 C4.34375 45.421875 4.34375 45.421875 6.40625 46.734375 C6.40625 49.734375 6.40625 49.734375 5.19140625 51.19921875 C-3.13671507 58.31872382 -9.95737509 60.39288162 -21.00390625 60.05078125 C-29.23635665 59.32517898 -35.6393021 56.53148993 -41.59375 50.734375 C-48.80041526 42.00977041 -51.31611556 34.99385552 -50.59375 23.734375 C-49.70615756 14.9586627 -45.60920021 8.17612136 -39.03125 2.359375 C-27.72420632 -6.6314681 -12.49499127 -7.20864881 0 0 Z " transform="translate(673.59375,409.265625)" style="fill: #EABF11;"/><path d="M0 0 C2.31 0 4.62 0 7 0 C7 42.9 7 85.8 7 130 C4.69 130 2.38 130 0 130 C0 87.1 0 44.2 0 0 Z " transform="translate(481,372)" style="fill: #E4BB14;"/><path d="M0 0 C2.31 0 4.62 0 7 0 C7 42.9 7 85.8 7 130 C4.69 130 2.38 130 0 130 C0 87.1 0 44.2 0 0 Z " transform="translate(468,372)" style="fill: #E4BB14;"/><path d="M0 0 C2.31 0 4.62 0 7 0 C7 42.9 7 85.8 7 130 C4.69 130 2.38 130 0 130 C0 87.1 0 44.2 0 0 Z " transform="translate(455,372)" style="fill: #E4BB14;"/></svg>